<?xml version="1.0" standalone="no"?>
<!DOCTYPE svg PUBLIC "-//W3C//DTD SVG 20010904//EN"
 "http://www.w3.org/TR/2001/REC-SVG-20010904/DTD/svg10.dtd">
<svg version="1.0" xmlns="http://www.w3.org/2000/svg"
 width="454.000000pt" height="119.000000pt" viewBox="0 0 454.000000 119.000000"
 preserveAspectRatio="xMidYMid meet">

<g transform="translate(0.000000,119.000000) scale(0.100000,-0.100000)"
fill="#000000" stroke="none">
<path d="M428 1067 c-230 -79 -375 -312 -340 -549 61 -417 563 -584 860 -287
274 274 151 731 -227 846 -72 21 -214 16 -293 -10z m441 -232 c31 -15 41 -33
41 -70 0 -26 -46 -66 -120 -106 -25 -13 -47 -25 -50 -27 -3 -2 3 -8 13 -13 9
-6 27 -28 38 -51 47 -92 -9 -186 -153 -258 -91 -45 -138 -51 -196 -21 -63 33
-112 104 -112 164 0 69 66 170 143 217 24 15 26 19 12 30 -25 21 -18 57 18 83
80 61 150 74 186 36 13 -14 26 -19 40 -14 33 10 24 -7 -18 -37 -43 -31 -61
-35 -61 -14 0 38 -74 57 -110 28 -24 -20 -25 -20 -6 -41 14 -15 31 -21 62 -21
79 0 69 -39 -13 -47 -77 -7 -91 -12 -128 -45 -42 -37 -60 -68 -69 -123 -10
-61 34 -142 94 -172 61 -32 113 -29 176 7 85 48 113 116 80 195 -21 49 -56 69
-112 62 -103 -11 -139 -124 -52 -160 l33 -14 -27 -13 c-61 -29 -123 39 -97
108 25 66 85 105 215 137 163 42 198 80 143 157 -30 43 -21 50 30 23z"/>
<path d="M2550 735 c-26 -32 13 -81 48 -59 34 22 22 74 -18 74 -10 0 -23 -7
-30 -15z"/>
<path d="M4060 735 c-26 -32 13 -81 48 -59 34 22 22 74 -18 74 -10 0 -23 -7
-30 -15z"/>
<path d="M2190 570 l0 -160 35 0 35 0 0 68 c0 71 16 102 51 102 30 0 39 -24
39 -97 l0 -73 40 0 40 0 -1 73 c0 88 -16 137 -49 154 -29 15 -77 8 -102 -15
-17 -14 -18 -11 -18 46 l0 62 -35 0 -35 0 0 -160z"/>
<path d="M3850 674 c0 -44 -3 -54 -13 -46 -13 11 -46 16 -83 14 -55 -4 -96
-91 -74 -157 21 -63 95 -95 151 -65 13 7 19 7 19 0 0 -5 18 -10 40 -10 l40 0
0 160 0 160 -40 0 -40 0 0 -56z m-22 -100 c25 -17 31 -71 10 -92 -15 -15 -61
-15 -76 0 -21 21 -15 75 10 92 12 9 25 16 28 16 3 0 16 -7 28 -16z"/>
<path d="M1277 705 c-47 -16 -66 -40 -67 -81 0 -40 26 -63 98 -89 64 -23 80
-50 37 -61 -21 -5 -72 8 -126 34 -3 1 -11 -10 -18 -24 -10 -22 -9 -29 1 -36
115 -80 279 -25 242 81 -9 25 -30 38 -116 75 -50 21 -51 46 -3 46 20 0 49 -7
65 -15 29 -15 30 -14 44 14 19 36 10 45 -54 60 -56 13 -57 13 -103 -4z"/>
<path d="M2807 705 c-47 -16 -66 -40 -67 -81 0 -40 26 -63 98 -89 64 -23 80
-50 37 -61 -21 -5 -72 8 -126 34 -3 1 -11 -10 -18 -24 -10 -22 -9 -29 1 -36
115 -80 279 -25 242 81 -9 25 -30 38 -116 75 -50 21 -51 46 -3 46 20 0 49 -7
65 -15 29 -15 30 -14 44 14 19 36 10 45 -54 60 -56 13 -57 13 -103 -4z"/>
<path d="M3100 665 c0 -24 -5 -35 -15 -35 -9 0 -15 -9 -15 -25 0 -16 6 -25 15
-25 12 0 15 -14 15 -65 0 -77 19 -105 74 -105 51 0 64 8 58 35 -3 17 -12 25
-31 27 -24 3 -26 7 -29 56 l-3 52 30 0 c26 0 31 4 31 25 0 21 -5 25 -30 25
-28 0 -30 3 -30 35 0 33 -2 35 -35 35 -33 0 -35 -2 -35 -35z"/>
<path d="M1623 639 c-81 -24 -111 -128 -54 -191 28 -31 33 -33 96 -33 63 0 68
2 96 33 34 38 39 97 12 143 -25 43 -94 65 -150 48z m77 -69 c24 -24 25 -48 4
-78 -33 -48 -103 -7 -88 52 11 46 52 58 84 26z"/>
<path d="M1930 632 c-29 -14 -36 -23 -38 -53 -3 -41 10 -56 72 -79 23 -9 40
-20 39 -25 -3 -16 -42 -18 -75 -4 -30 12 -47 3 -48 -27 0 -18 48 -34 101 -34
40 0 55 5 74 25 44 43 23 94 -49 118 -22 8 -42 19 -44 25 -5 15 42 16 68 2 15
-8 21 -6 30 9 16 32 12 39 -27 50 -51 15 -62 14 -103 -7z"/>
<path d="M4320 639 c-70 -15 -107 -96 -75 -163 46 -96 206 -87 236 13 29 97
-53 174 -161 150z m68 -65 c25 -17 31 -71 10 -92 -15 -15 -61 -15 -76 0 -21
21 -15 75 10 92 12 9 25 16 28 16 3 0 16 -7 28 -16z"/>
<path d="M2540 525 l0 -115 40 0 40 0 0 115 0 115 -40 0 -40 0 0 -115z"/>
<path d="M3330 560 c0 -84 15 -132 45 -144 30 -11 78 -6 97 11 17 15 18 15 18
0 0 -13 9 -17 40 -17 l40 0 0 115 0 115 -40 0 -40 0 0 -69 c0 -70 -14 -101
-44 -101 -26 0 -36 26 -36 97 l0 73 -40 0 -40 0 0 -80z"/>
<path d="M4050 525 l0 -115 40 0 40 0 0 115 0 115 -40 0 -40 0 0 -115z"/>
</g>
</svg>
